<?xml version="1.0" standalone="no"?>
<!DOCTYPE svg PUBLIC "-//W3C//DTD SVG 20010904//EN"
 "http://www.w3.org/TR/2001/REC-SVG-20010904/DTD/svg10.dtd">
<svg version="1.0" xmlns="http://www.w3.org/2000/svg"
 width="545.000000pt" height="323.000000pt" viewBox="0 0 545.000000 323.000000"
 preserveAspectRatio="xMidYMid meet">

<g transform="translate(0.000000,323.000000) scale(0.100000,-0.100000)"
fill="#000000" stroke="none">
<path d="M563 3186 c-181 -59 -310 -224 -434 -553 -64 -173 -92 -302 -92 -423
1 -218 80 -347 300 -490 l101 -65 1 -95 c1 -94 1 -95 -29 -124 -49 -46 -70
-97 -70 -168 1 -134 84 -227 205 -227 68 -1 140 34 193 94 49 56 66 102 61
173 -3 39 0 53 11 58 8 3 17 5 19 4 2 -1 7 2 10 7 3 4 22 20 41 34 l35 26 161
-58 c323 -116 601 -185 906 -225 170 -22 533 -29 768 -15 107 7 347 15 532 18
l337 6 11 -27 c5 -15 37 -76 71 -136 l61 -109 -33 -28 c-187 -155 -269 -403
-200 -606 24 -71 46 -93 85 -83 43 11 50 45 27 123 -12 39 -21 90 -21 115 0
100 72 261 149 329 50 46 144 94 204 105 34 6 37 4 37 -17 0 -19 -12 -29 -58
-51 -76 -36 -187 -145 -221 -218 -20 -44 -25 -71 -26 -135 0 -90 21 -179 40
-171 8 3 11 -2 8 -15 -10 -38 69 -122 162 -172 54 -28 69 -32 145 -32 77 0 92
3 155 34 157 77 262 251 240 400 -19 136 -136 268 -279 317 -38 13 -46 20 -46
41 0 24 3 25 35 20 48 -8 156 -61 188 -92 14 -14 38 -27 54 -28 24 -2 28 2 31
26 9 75 -145 196 -270 213 -54 7 -53 4 -41 127 l6 67 143 0 142 0 12 -34 c21
-64 24 -65 255 -68 200 -3 212 -2 251 19 24 13 55 42 72 68 l30 45 -2 -147
c-1 -133 1 -153 21 -195 27 -60 71 -88 135 -88 26 0 58 5 72 11 53 25 95 119
96 216 0 22 -18 139 -41 260 -22 120 -43 232 -46 249 -4 25 0 33 23 49 45 28
90 81 108 125 21 54 20 135 -3 185 -21 45 -91 120 -121 130 -24 8 -24 -10 -1
242 19 219 16 285 -19 353 -28 56 -77 90 -128 90 -35 0 -48 -6 -81 -39 -43
-43 -71 -115 -71 -184 0 -21 18 -129 40 -239 22 -111 38 -203 35 -207 -10 -10
-25 23 -25 56 0 92 -68 217 -145 267 -66 44 -108 51 -264 48 -153 -3 -194 -13
-199 -47 -10 -68 -5 -65 -95 -65 -45 0 -118 3 -163 6 l-81 7 13 62 c14 65 39
218 49 296 l6 47 89 1 c158 2 245 29 310 96 29 30 34 43 38 92 3 56 2 60 -38
108 -23 28 -44 49 -46 48 -2 -1 -23 6 -46 17 -152 66 -358 52 -838 -55 -201
-45 -457 -118 -514 -147 -108 -55 -150 -104 -126 -148 10 -19 22 -20 221 -20
197 0 211 -1 204 -17 -10 -25 -52 -233 -60 -298 -6 -45 -11 -55 -26 -55 -11 0
-19 4 -19 9 0 4 -35 43 -79 85 -84 82 -181 153 -265 192 l-51 24 -22 -25 c-13
-15 -23 -34 -23 -43 0 -51 -22 -195 -37 -251 -18 -63 -19 -65 -73 -90 -44 -20
-70 -26 -125 -25 -90 1 -209 41 -247 83 -47 52 -57 54 -234 47 -89 -4 -301
-18 -471 -31 -169 -12 -309 -22 -310 -21 0 0 -6 43 -12 94 -21 174 -102 369
-220 534 -75 103 -91 122 -166 188 -89 78 -188 123 -284 127 -46 2 -93 -3
-118 -11z"/>
</g>
</svg>
